<?xml version="1.0" encoding="utf-8" standalone="no"?>
<!DOCTYPE svg PUBLIC "-//W3C//DTD SVG 1.1//EN"
  "http://www.w3.org/Graphics/SVG/1.1/DTD/svg11.dtd">
<svg xmlns:xlink="http://www.w3.org/1999/xlink" width="859.523713pt" height="431.875432pt" viewBox="0 0 859.523713 431.875432" xmlns="http://www.w3.org/2000/svg" version="1.1">
 <metadata>
  <rdf:RDF xmlns:dc="http://purl.org/dc/elements/1.1/" xmlns:cc="http://creativecommons.org/ns#" xmlns:rdf="http://www.w3.org/1999/02/22-rdf-syntax-ns#">
   <cc:Work>
    <dc:type rdf:resource="http://purl.org/dc/dcmitype/StillImage"/>
    <dc:date>2026-04-25T13:43:03.694878</dc:date>
    <dc:format>image/svg+xml</dc:format>
    <dc:creator>
     <cc:Agent>
      <dc:title>Matplotlib v3.10.8, https://matplotlib.org/</dc:title>
     </cc:Agent>
    </dc:creator>
   </cc:Work>
  </rdf:RDF>
 </metadata>
 <defs>
  <style type="text/css">*{stroke-linejoin: round; stroke-linecap: butt}</style>
 </defs>
 <g id="figure_1">
  <g id="patch_1">
   <path d="M 0 431.875432 
L 859.523713 431.875432 
L 859.523713 0 
L 0 0 
z
" style="fill: #ffffff"/>
  </g>
  <g id="axes_1">
   <g id="patch_2">
    <path d="M 387.152233 223.496778 
C 387.152233 201.325838 382.785041 179.370482 374.30059 158.887204 
C 365.816138 138.403926 353.379428 119.791074 337.702205 104.113851 
C 322.024983 88.436629 303.412131 75.999919 282.928853 67.515467 
C 262.445575 59.031016 240.490219 54.663824 218.319278 54.663824 
C 196.148338 54.663824 174.192982 59.031016 153.709704 67.515467 
C 133.226426 75.999919 114.613574 88.436629 98.936351 104.113851 
C 83.259129 119.791074 70.822419 138.403926 62.337967 158.887204 
C 53.853516 179.370482 49.486324 201.325838 49.486324 223.496778 
C 49.486324 245.667719 53.853516 267.623075 62.337967 288.106353 
C 70.822419 308.589631 83.259129 327.202483 98.936351 342.879705 
C 114.613574 358.556928 133.226426 370.993638 153.709704 379.47809 
C 174.192982 387.962541 196.148338 392.329733 218.319278 392.329733 
C 240.490219 392.329733 262.445575 387.962541 282.928853 379.47809 
C 303.412131 370.993638 322.024983 358.556928 337.702205 342.879705 
C 353.379428 327.202483 365.816138 308.589631 374.30059 288.106353 
C 382.785041 267.623075 387.152233 245.667719 387.152233 223.496778 
M 218.319278 223.496778 
C 218.319278 223.496778 218.319278 223.496778 218.319278 223.496778 
C 218.319278 223.496778 218.319278 223.496778 218.319278 223.496778 
C 218.319278 223.496778 218.319278 223.496778 218.319278 223.496778 
C 218.319278 223.496778 218.319278 223.496778 218.319278 223.496778 
C 218.319278 223.496778 218.319278 223.496778 218.319278 223.496778 
C 218.319278 223.496778 218.319278 223.496778 218.319278 223.496778 
C 218.319278 223.496778 218.319278 223.496778 218.319278 223.496778 
C 218.319278 223.496778 218.319278 223.496778 218.319278 223.496778 
C 218.319278 223.496778 218.319278 223.496778 218.319278 223.496778 
C 218.319278 223.496778 218.319278 223.496778 218.319278 223.496778 
C 218.319278 223.496778 218.319278 223.496778 218.319278 223.496778 
C 218.319278 223.496778 218.319278 223.496778 218.319278 223.496778 
C 218.319278 223.496778 218.319278 223.496778 218.319278 223.496778 
C 218.319278 223.496778 218.319278 223.496778 218.319278 223.496778 
C 218.319278 223.496778 218.319278 223.496778 218.319278 223.496778 
C 218.319278 223.496778 218.319278 223.496778 218.319278 223.496778 
z
" style="fill: #ffffff"/>
   </g>
   <g id="matplotlib.axis_1">
    <g id="xtick_1">
     <g id="line2d_1">
      <path d="M 218.319278 223.496778 
L 387.152233 223.496778 
" clip-path="url(#p52e3858435)" style="fill: none; stroke: #b0b0b0; stroke-width: 0.8; stroke-linecap: square"/>
     </g>
     <g id="text_1">
      <text style="font-size: 10px; font-family: 'DejaVu Sans', 'Bitstream Vera Sans', 'Computer Modern Sans Serif', 'Lucida Grande', 'Verdana', 'Geneva', 'Lucid', 'Arial', 'Helvetica', 'Avant Garde', sans-serif; text-anchor: middle" x="414.658869" y="226.256153" transform="rotate(-0 414.658869 226.256153)">Dice</text>
     </g>
    </g>
    <g id="xtick_2">
     <g id="line2d_2">
      <path d="M 218.319278 223.496778 
L 218.319278 54.663824 
" clip-path="url(#p52e3858435)" style="fill: none; stroke: #b0b0b0; stroke-width: 0.8; stroke-linecap: square"/>
     </g>
     <g id="text_2">
      <text style="font-size: 10px; font-family: 'DejaVu Sans', 'Bitstream Vera Sans', 'Computer Modern Sans Serif', 'Lucida Grande', 'Verdana', 'Geneva', 'Lucid', 'Arial', 'Helvetica', 'Avant Garde', sans-serif; text-anchor: middle" x="218.319278" y="29.916563" transform="rotate(-0 218.319278 29.916563)">Jaccard</text>
     </g>
    </g>
    <g id="xtick_3">
     <g id="line2d_3">
      <path d="M 218.319278 223.496778 
L 49.486324 223.496778 
" clip-path="url(#p52e3858435)" style="fill: none; stroke: #b0b0b0; stroke-width: 0.8; stroke-linecap: square"/>
     </g>
     <g id="text_3">
      <text style="font-size: 10px; font-family: 'DejaVu Sans', 'Bitstream Vera Sans', 'Computer Modern Sans Serif', 'Lucida Grande', 'Verdana', 'Geneva', 'Lucid', 'Arial', 'Helvetica', 'Avant Garde', sans-serif; text-anchor: middle" x="21.979687" y="226.256153" transform="rotate(-0 21.979687 226.256153)">1 - FN</text>
     </g>
    </g>
    <g id="xtick_4">
     <g id="line2d_4">
      <path d="M 218.319278 223.496778 
L 218.319278 392.329733 
" clip-path="url(#p52e3858435)" style="fill: none; stroke: #b0b0b0; stroke-width: 0.8; stroke-linecap: square"/>
     </g>
     <g id="text_4">
      <text style="font-size: 10px; font-family: 'DejaVu Sans', 'Bitstream Vera Sans', 'Computer Modern Sans Serif', 'Lucida Grande', 'Verdana', 'Geneva', 'Lucid', 'Arial', 'Helvetica', 'Avant Garde', sans-serif; text-anchor: middle" x="218.319278" y="422.595744" transform="rotate(-0 218.319278 422.595744)">1 - FP</text>
     </g>
    </g>
   </g>
   <g id="matplotlib.axis_2">
    <g id="ytick_1">
     <g id="line2d_5">
      <path d="M 252.085869 223.496778 
C 252.085869 219.06259 251.212431 214.671519 249.515541 210.574864 
C 247.81865 206.478208 245.331308 202.755637 242.195864 199.620193 
C 239.060419 196.484749 235.337849 193.997407 231.241193 192.300516 
C 227.144538 190.603626 222.753466 189.730188 218.319278 189.730188 
C 213.88509 189.730188 209.494019 190.603626 205.397364 192.300516 
C 201.300708 193.997407 197.578137 196.484749 194.442693 199.620193 
C 191.307249 202.755637 188.819907 206.478208 187.123016 210.574864 
C 185.426126 214.671519 184.552687 219.06259 184.552687 223.496778 
C 184.552687 227.930966 185.426126 232.322038 187.123016 236.418693 
C 188.819907 240.515349 191.307249 244.237919 194.442693 247.373364 
C 197.578137 250.508808 201.300708 252.99615 205.397364 254.693041 
C 209.494019 256.389931 213.88509 257.263369 218.319278 257.263369 
C 222.753466 257.263369 227.144538 256.389931 231.241193 254.693041 
C 235.337849 252.99615 239.060419 250.508808 242.195864 247.373364 
C 245.331308 244.237919 247.81865 240.515349 249.515541 236.418693 
C 251.212431 232.322038 252.085869 227.930966 252.085869 223.496778 
" clip-path="url(#p52e3858435)" style="fill: none; stroke: #b0b0b0; stroke-width: 0.8; stroke-linecap: square"/>
     </g>
     <g id="text_5">
      <text style="font-size: 10px; font-family: 'DejaVu Sans', 'Bitstream Vera Sans', 'Computer Modern Sans Serif', 'Lucida Grande', 'Verdana', 'Geneva', 'Lucid', 'Arial', 'Helvetica', 'Avant Garde', sans-serif; text-anchor: start" x="249.515541" y="208.495176" transform="rotate(-0 249.515541 208.495176)">0.2</text>
     </g>
    </g>
    <g id="ytick_2">
     <g id="line2d_6">
      <path d="M 285.85246 223.496778 
C 285.85246 214.628402 284.105583 205.84626 280.711803 197.652949 
C 277.318022 189.459637 272.343338 182.014497 266.072449 175.743608 
C 259.80156 169.472719 252.356419 164.498035 244.163108 161.104254 
C 235.969797 157.710473 227.187655 155.963597 218.319278 155.963597 
C 209.450902 155.963597 200.66876 157.710473 192.475449 161.104254 
C 184.282137 164.498035 176.836997 169.472719 170.566108 175.743608 
C 164.295219 182.014497 159.320535 189.459637 155.926754 197.652949 
C 152.532973 205.84626 150.786097 214.628402 150.786097 223.496778 
C 150.786097 232.365155 152.532973 241.147297 155.926754 249.340608 
C 159.320535 257.533919 164.295219 264.97906 170.566108 271.249949 
C 176.836997 277.520838 184.282137 282.495522 192.475449 285.889303 
C 200.66876 289.283083 209.450902 291.02996 218.319278 291.02996 
C 227.187655 291.02996 235.969797 289.283083 244.163108 285.889303 
C 252.356419 282.495522 259.80156 277.520838 266.072449 271.249949 
C 272.343338 264.97906 277.318022 257.533919 280.711803 249.340608 
C 284.105583 241.147297 285.85246 232.365155 285.85246 223.496778 
" clip-path="url(#p52e3858435)" style="fill: none; stroke: #b0b0b0; stroke-width: 0.8; stroke-linecap: square"/>
     </g>
     <g id="text_6">
      <text style="font-size: 10px; font-family: 'DejaVu Sans', 'Bitstream Vera Sans', 'Computer Modern Sans Serif', 'Lucida Grande', 'Verdana', 'Geneva', 'Lucid', 'Arial', 'Helvetica', 'Avant Garde', sans-serif; text-anchor: start" x="280.711803" y="195.573261" transform="rotate(-0 280.711803 195.573261)">0.4</text>
     </g>
    </g>
    <g id="ytick_3">
     <g id="line2d_7">
      <path d="M 319.619051 223.496778 
C 319.619051 210.194214 316.998736 197.021001 311.908065 184.731034 
C 306.817394 172.441067 299.355368 161.273356 289.949035 151.867022 
C 280.542701 142.460689 269.37499 134.998663 257.085023 129.907992 
C 244.795056 124.817321 231.621843 122.197006 218.319278 122.197006 
C 205.016714 122.197006 191.843501 124.817321 179.553534 129.907992 
C 167.263567 134.998663 156.095856 142.460689 146.689522 151.867022 
C 137.283189 161.273356 129.821163 172.441067 124.730492 184.731034 
C 119.639821 197.021001 117.019506 210.194214 117.019506 223.496778 
C 117.019506 236.799343 119.639821 249.972556 124.730492 262.262523 
C 129.821163 274.55249 137.283189 285.720201 146.689522 295.126535 
C 156.095856 304.532868 167.263567 311.994894 179.553534 317.085565 
C 191.843501 322.176236 205.016714 324.796551 218.319278 324.796551 
C 231.621843 324.796551 244.795056 322.176236 257.085023 317.085565 
C 269.37499 311.994894 280.542701 304.532868 289.949035 295.126535 
C 299.355368 285.720201 306.817394 274.55249 311.908065 262.262523 
C 316.998736 249.972556 319.619051 236.799343 319.619051 223.496778 
" clip-path="url(#p52e3858435)" style="fill: none; stroke: #b0b0b0; stroke-width: 0.8; stroke-linecap: square"/>
     </g>
     <g id="text_7">
      <text style="font-size: 10px; font-family: 'DejaVu Sans', 'Bitstream Vera Sans', 'Computer Modern Sans Serif', 'Lucida Grande', 'Verdana', 'Geneva', 'Lucid', 'Arial', 'Helvetica', 'Avant Garde', sans-serif; text-anchor: start" x="311.908065" y="182.651346" transform="rotate(-0 311.908065 182.651346)">0.6</text>
     </g>
    </g>
    <g id="ytick_4">
     <g id="line2d_8">
      <path d="M 353.385642 223.496778 
C 353.385642 205.760026 349.891889 188.195741 343.104327 171.809119 
C 336.316766 155.422496 326.367398 140.532215 313.82562 127.990437 
C 301.283842 115.448659 286.393561 105.499291 270.006938 98.71173 
C 253.620316 91.924168 236.056031 88.430415 218.319278 88.430415 
C 200.582526 88.430415 183.018241 91.924168 166.631619 98.71173 
C 150.244996 105.499291 135.354715 115.448659 122.812937 127.990437 
C 110.271159 140.532215 100.321791 155.422496 93.53423 171.809119 
C 86.746668 188.195741 83.252915 205.760026 83.252915 223.496778 
C 83.252915 241.233531 86.746668 258.797816 93.53423 275.184438 
C 100.321791 291.571061 110.271159 306.461342 122.812937 319.00312 
C 135.354715 331.544898 150.244996 341.494266 166.631619 348.281827 
C 183.018241 355.069389 200.582526 358.563142 218.319278 358.563142 
C 236.056031 358.563142 253.620316 355.069389 270.006938 348.281827 
C 286.393561 341.494266 301.283842 331.544898 313.82562 319.00312 
C 326.367398 306.461342 336.316766 291.571061 343.104327 275.184438 
C 349.891889 258.797816 353.385642 241.233531 353.385642 223.496778 
" clip-path="url(#p52e3858435)" style="fill: none; stroke: #b0b0b0; stroke-width: 0.8; stroke-linecap: square"/>
     </g>
     <g id="text_8">
      <text style="font-size: 10px; font-family: 'DejaVu Sans', 'Bitstream Vera Sans', 'Computer Modern Sans Serif', 'Lucida Grande', 'Verdana', 'Geneva', 'Lucid', 'Arial', 'Helvetica', 'Avant Garde', sans-serif; text-anchor: start" x="343.104327" y="169.729431" transform="rotate(-0 343.104327 169.729431)">0.8</text>
     </g>
    </g>
    <g id="ytick_5">
     <g id="line2d_9">
      <path d="M 387.152233 223.496778 
C 387.152233 201.325838 382.785041 179.370482 374.30059 158.887204 
C 365.816138 138.403926 353.379428 119.791074 337.702205 104.113851 
C 322.024983 88.436629 303.412131 75.999919 282.928853 67.515467 
C 262.445575 59.031016 240.490219 54.663824 218.319278 54.663824 
C 196.148338 54.663824 174.192982 59.031016 153.709704 67.515467 
C 133.226426 75.999919 114.613574 88.436629 98.936351 104.113851 
C 83.259129 119.791074 70.822419 138.403926 62.337967 158.887204 
C 53.853516 179.370482 49.486324 201.325838 49.486324 223.496778 
C 49.486324 245.667719 53.853516 267.623075 62.337967 288.106353 
C 70.822419 308.589631 83.259129 327.202483 98.936351 342.879705 
C 114.613574 358.556928 133.226426 370.993638 153.709704 379.47809 
C 174.192982 387.962541 196.148338 392.329733 218.319278 392.329733 
C 240.490219 392.329733 262.445575 387.962541 282.928853 379.47809 
C 303.412131 370.993638 322.024983 358.556928 337.702205 342.879705 
C 353.379428 327.202483 365.816138 308.589631 374.30059 288.106353 
C 382.785041 267.623075 387.152233 245.667719 387.152233 223.496778 
" clip-path="url(#p52e3858435)" style="fill: none; stroke: #b0b0b0; stroke-width: 0.8; stroke-linecap: square"/>
     </g>
     <g id="text_9">
      <text style="font-size: 10px; font-family: 'DejaVu Sans', 'Bitstream Vera Sans', 'Computer Modern Sans Serif', 'Lucida Grande', 'Verdana', 'Geneva', 'Lucid', 'Arial', 'Helvetica', 'Avant Garde', sans-serif; text-anchor: start" x="374.30059" y="156.807516" transform="rotate(-0 374.30059 156.807516)">1.0</text>
     </g>
    </g>
   </g>
   <g id="line2d_10">
    <path d="M 347.344701 223.496778 
L 218.319278 119.088743 
L 90.196099 223.496778 
L 218.319278 392.311508 
L 347.344701 223.496778 
" clip-path="url(#p52e3858435)" style="fill: none; stroke: #0000ff; stroke-opacity: 0.2; stroke-width: 1.5; stroke-linecap: square"/>
   </g>
   <g id="line2d_11">
    <path d="M 356.561845 223.496778 
L 218.319278 106.459822 
L 82.370471 223.496778 
L 218.319278 392.309027 
L 356.561845 223.496778 
" clip-path="url(#p52e3858435)" style="fill: none; stroke: #0000ff; stroke-opacity: 0.2; stroke-width: 1.5; stroke-linecap: square"/>
   </g>
   <g id="line2d_12">
    <path d="M 350.490726 223.496778 
L 218.319278 114.90555 
L 90.666475 223.496778 
L 218.319278 392.314679 
L 350.490726 223.496778 
" clip-path="url(#p52e3858435)" style="fill: none; stroke: #0000ff; stroke-opacity: 0.2; stroke-width: 1.5; stroke-linecap: square"/>
   </g>
   <g id="line2d_13">
    <path d="M 355.523124 223.496778 
L 218.319278 107.941096 
L 79.604194 223.496778 
L 218.319278 392.305074 
L 355.523124 223.496778 
" clip-path="url(#p52e3858435)" style="fill: none; stroke: #0000ff; stroke-opacity: 0.2; stroke-width: 1.5; stroke-linecap: square"/>
   </g>
   <g id="line2d_14">
    <path d="M 347.318429 223.496778 
L 218.319278 119.123145 
L 91.597084 223.496778 
L 218.319278 392.311059 
L 347.318429 223.496778 
" clip-path="url(#p52e3858435)" style="fill: none; stroke: #0000ff; stroke-opacity: 0.2; stroke-width: 1.5; stroke-linecap: square"/>
   </g>
   <g id="line2d_15">
    <path d="M 355.135106 223.496778 
L 218.319278 108.4905 
L 85.735064 223.496778 
L 218.319278 392.311465 
L 355.135106 223.496778 
" clip-path="url(#p52e3858435)" style="fill: none; stroke: #0000ff; stroke-opacity: 0.2; stroke-width: 1.5; stroke-linecap: square"/>
   </g>
   <g id="line2d_16">
    <path d="M 344.117126 223.496778 
L 218.319278 123.251266 
L 89.582499 223.496778 
L 218.319278 392.294195 
L 344.117126 223.496778 
" clip-path="url(#p52e3858435)" style="fill: none; stroke: #0000ff; stroke-opacity: 0.2; stroke-width: 1.5; stroke-linecap: square"/>
   </g>
   <g id="line2d_17">
    <path d="M 282.611214 223.496778 
L 218.319278 183.79074 
L 74.170815 223.496778 
L 218.319278 392.231214 
L 282.611214 223.496778 
" clip-path="url(#p52e3858435)" style="fill: none; stroke: #0000ff; stroke-opacity: 0.2; stroke-width: 1.5; stroke-linecap: square"/>
   </g>
   <g id="line2d_18">
    <path d="M 345.18555 223.496778 
L 218.319278 121.88746 
L 86.13957 223.496778 
L 218.319278 392.293574 
L 345.18555 223.496778 
" clip-path="url(#p52e3858435)" style="fill: none; stroke: #0000ff; stroke-opacity: 0.2; stroke-width: 1.5; stroke-linecap: square"/>
   </g>
   <g id="line2d_19">
    <path d="M 338.456253 223.496778 
L 218.319278 130.253641 
L 70.555693 223.496778 
L 218.319278 392.273818 
L 338.456253 223.496778 
" clip-path="url(#p52e3858435)" style="fill: none; stroke: #0000ff; stroke-opacity: 0.2; stroke-width: 1.5; stroke-linecap: square"/>
   </g>
   <g id="line2d_20">
    <path d="M 339.299364 223.496778 
L 218.319278 129.233919 
L 87.065748 223.496778 
L 218.319278 392.283185 
L 339.299364 223.496778 
" clip-path="url(#p52e3858435)" style="fill: none; stroke: #0000ff; stroke-opacity: 0.2; stroke-width: 1.5; stroke-linecap: square"/>
   </g>
   <g id="line2d_21">
    <path d="M 335.511217 223.496778 
L 218.319278 133.754388 
L 74.353068 223.496778 
L 218.319278 392.277244 
L 335.511217 223.496778 
" clip-path="url(#p52e3858435)" style="fill: none; stroke: #0000ff; stroke-opacity: 0.2; stroke-width: 1.5; stroke-linecap: square"/>
   </g>
   <g id="line2d_22">
    <path d="M 347.679332 223.496778 
L 218.319278 118.649797 
L 74.502212 223.496778 
L 218.319278 392.281403 
L 347.679332 223.496778 
" clip-path="url(#p52e3858435)" style="fill: none; stroke: #0000ff; stroke-opacity: 0.2; stroke-width: 1.5; stroke-linecap: square"/>
   </g>
   <g id="line2d_23">
    <path d="M 360.183143 223.496778 
L 218.319278 101.172747 
L 62.598105 223.496778 
L 218.319278 392.294123 
L 360.183143 223.496778 
" clip-path="url(#p52e3858435)" style="fill: none; stroke: #0000ff; stroke-opacity: 0.2; stroke-width: 1.5; stroke-linecap: square"/>
   </g>
   <g id="line2d_24">
    <path d="M 346.375056 223.496778 
L 218.319278 120.352741 
L 76.854892 223.496778 
L 218.319278 392.281686 
L 346.375056 223.496778 
" clip-path="url(#p52e3858435)" style="fill: none; stroke: #0000ff; stroke-opacity: 0.2; stroke-width: 1.5; stroke-linecap: square"/>
   </g>
   <g id="line2d_25">
    <path d="M 361.006751 223.496778 
L 218.319278 99.942872 
L 61.629637 223.496778 
L 218.319278 392.294869 
L 361.006751 223.496778 
" clip-path="url(#p52e3858435)" style="fill: none; stroke: #0000ff; stroke-opacity: 0.2; stroke-width: 1.5; stroke-linecap: square"/>
   </g>
   <g id="line2d_26">
    <path d="M 350.230115 223.496778 
L 218.319278 115.256938 
L 71.94911 223.496778 
L 218.319278 392.284345 
L 350.230115 223.496778 
" clip-path="url(#p52e3858435)" style="fill: none; stroke: #0000ff; stroke-opacity: 0.2; stroke-width: 1.5; stroke-linecap: square"/>
   </g>
   <g id="line2d_27">
    <path d="M 363.025299 223.496778 
L 218.319278 96.88422 
L 60.828559 223.496778 
L 218.319278 392.295879 
L 363.025299 223.496778 
" clip-path="url(#p52e3858435)" style="fill: none; stroke: #0000ff; stroke-opacity: 0.2; stroke-width: 1.5; stroke-linecap: square"/>
   </g>
   <g id="line2d_28">
    <path d="M 347.270485 223.496778 
L 218.319278 119.185904 
L 100.76989 223.496778 
L 218.319278 392.319478 
L 347.270485 223.496778 
" clip-path="url(#p52e3858435)" style="fill: none; stroke: #0000ff; stroke-opacity: 0.2; stroke-width: 1.5; stroke-linecap: square"/>
   </g>
   <g id="line2d_29">
    <path d="M 358.562124 223.496778 
L 218.319278 103.563405 
L 79.581606 223.496778 
L 218.319278 392.318596 
L 358.562124 223.496778 
" clip-path="url(#p52e3858435)" style="fill: none; stroke: #0000ff; stroke-opacity: 0.2; stroke-width: 1.5; stroke-linecap: square"/>
   </g>
   <g id="line2d_30">
    <path d="M 355.888016 223.496778 
L 218.319278 107.422492 
L 74.644194 223.496778 
L 218.319278 392.301103 
L 355.888016 223.496778 
" clip-path="url(#p52e3858435)" style="fill: none; stroke: #0000ff; stroke-opacity: 0.2; stroke-width: 1.5; stroke-linecap: square"/>
   </g>
   <g id="line2d_31">
    <path d="M 357.001544 223.496778 
L 218.319278 105.828129 
L 71.047844 223.496778 
L 218.319278 392.299331 
L 357.001544 223.496778 
" clip-path="url(#p52e3858435)" style="fill: none; stroke: #0000ff; stroke-opacity: 0.2; stroke-width: 1.5; stroke-linecap: square"/>
   </g>
   <g id="line2d_32">
    <path d="M 345.924869 223.496778 
L 218.319278 120.935623 
L 86.076234 223.496778 
L 218.319278 392.300928 
L 345.924869 223.496778 
" clip-path="url(#p52e3858435)" style="fill: none; stroke: #0000ff; stroke-opacity: 0.2; stroke-width: 1.5; stroke-linecap: square"/>
   </g>
   <g id="line2d_33">
    <path d="M 356.937465 223.496778 
L 218.319278 105.920362 
L 77.17991 223.496778 
L 218.319278 392.300229 
L 356.937465 223.496778 
" clip-path="url(#p52e3858435)" style="fill: none; stroke: #0000ff; stroke-opacity: 0.2; stroke-width: 1.5; stroke-linecap: square"/>
   </g>
   <g id="line2d_34">
    <path d="M 338.955857 223.496778 
L 218.319278 129.650339 
L 98.16638 223.496778 
L 218.319278 392.301567 
L 338.955857 223.496778 
" clip-path="url(#p52e3858435)" style="fill: none; stroke: #0000ff; stroke-opacity: 0.2; stroke-width: 1.5; stroke-linecap: square"/>
   </g>
   <g id="line2d_35">
    <path d="M 355.576298 223.496778 
L 218.319278 107.86564 
L 82.140984 223.496778 
L 218.319278 392.310994 
L 355.576298 223.496778 
" clip-path="url(#p52e3858435)" style="fill: none; stroke: #0000ff; stroke-opacity: 0.2; stroke-width: 1.5; stroke-linecap: square"/>
   </g>
   <g id="line2d_36">
    <path d="M 343.072851 223.496778 
L 218.319278 124.571021 
L 79.87004 223.496778 
L 218.319278 392.286008 
L 343.072851 223.496778 
" clip-path="url(#p52e3858435)" style="fill: none; stroke: #0000ff; stroke-opacity: 0.2; stroke-width: 1.5; stroke-linecap: square"/>
   </g>
   <g id="line2d_37">
    <path d="M 355.250743 223.496778 
L 218.319278 108.326989 
L 80.302205 223.496778 
L 218.319278 392.31107 
L 355.250743 223.496778 
" clip-path="url(#p52e3858435)" style="fill: none; stroke: #0000ff; stroke-opacity: 0.2; stroke-width: 1.5; stroke-linecap: square"/>
   </g>
   <g id="line2d_38">
    <path d="M 340.856161 223.496778 
L 218.319278 127.330007 
L 97.131807 223.496778 
L 218.319278 392.304986 
L 340.856161 223.496778 
" clip-path="url(#p52e3858435)" style="fill: none; stroke: #0000ff; stroke-opacity: 0.2; stroke-width: 1.5; stroke-linecap: square"/>
   </g>
   <g id="line2d_39">
    <path d="M 358.097661 223.496778 
L 218.319278 104.241171 
L 82.957621 223.496778 
L 218.319278 392.316166 
L 358.097661 223.496778 
" clip-path="url(#p52e3858435)" style="fill: none; stroke: #0000ff; stroke-opacity: 0.2; stroke-width: 1.5; stroke-linecap: square"/>
   </g>
   <g id="line2d_40">
    <path d="M 350.085216 223.496778 
L 218.319278 115.451924 
L 101.016064 223.496778 
L 218.319278 392.32452 
L 350.085216 223.496778 
" clip-path="url(#p52e3858435)" style="fill: none; stroke: #0000ff; stroke-opacity: 0.2; stroke-width: 1.5; stroke-linecap: square"/>
   </g>
   <g id="line2d_41">
    <path d="M 359.396048 223.496778 
L 218.319278 102.338469 
L 75.196471 223.496778 
L 218.319278 392.312744 
L 359.396048 223.496778 
" clip-path="url(#p52e3858435)" style="fill: none; stroke: #0000ff; stroke-opacity: 0.2; stroke-width: 1.5; stroke-linecap: square"/>
   </g>
   <g id="line2d_42">
    <path d="M 347.649992 223.496778 
L 218.319278 118.68834 
L 92.297366 223.496778 
L 218.319278 392.31742 
L 347.649992 223.496778 
" clip-path="url(#p52e3858435)" style="fill: none; stroke: #0000ff; stroke-opacity: 0.2; stroke-width: 1.5; stroke-linecap: square"/>
   </g>
   <g id="line2d_43">
    <path d="M 356.267799 223.496778 
L 218.319278 106.880712 
L 77.540544 223.496778 
L 218.319278 392.310316 
L 356.267799 223.496778 
" clip-path="url(#p52e3858435)" style="fill: none; stroke: #0000ff; stroke-opacity: 0.2; stroke-width: 1.5; stroke-linecap: square"/>
   </g>
   <g id="line2d_44">
    <path d="M 329.834255 223.496778 
L 218.319278 140.245284 
L 134.219646 223.496778 
L 218.319278 392.329096 
L 329.834255 223.496778 
" clip-path="url(#p52e3858435)" style="fill: none; stroke: #0000ff; stroke-opacity: 0.2; stroke-width: 1.5; stroke-linecap: square"/>
   </g>
   <g id="line2d_45">
    <path d="M 333.394265 223.496778 
L 218.319278 136.21357 
L 130.911993 223.496778 
L 218.319278 392.329297 
L 333.394265 223.496778 
" clip-path="url(#p52e3858435)" style="fill: none; stroke: #0000ff; stroke-opacity: 0.2; stroke-width: 1.5; stroke-linecap: square"/>
   </g>
   <g id="line2d_46">
    <path d="M 351.831922 223.496778 
L 218.319278 113.082997 
L 104.725227 223.496778 
L 218.319278 392.325626 
L 351.831922 223.496778 
" clip-path="url(#p52e3858435)" style="fill: none; stroke: #0000ff; stroke-opacity: 0.2; stroke-width: 1.5; stroke-linecap: square"/>
   </g>
   <g id="line2d_47">
    <path d="M 343.183122 223.496778 
L 218.319278 124.432272 
L 107.700143 223.496778 
L 218.319278 392.30409 
L 343.183122 223.496778 
" clip-path="url(#p52e3858435)" style="fill: none; stroke: #0000ff; stroke-opacity: 0.2; stroke-width: 1.5; stroke-linecap: square"/>
   </g>
   <g id="line2d_48">
    <path d="M 315.447272 223.496778 
L 218.319278 155.322886 
L 148.897457 223.496778 
L 218.319278 392.327017 
L 315.447272 223.496778 
" clip-path="url(#p52e3858435)" style="fill: none; stroke: #0000ff; stroke-opacity: 0.2; stroke-width: 1.5; stroke-linecap: square"/>
   </g>
   <g id="line2d_49">
    <path d="M 319.779556 223.496778 
L 218.319278 150.975906 
L 144.010424 223.496778 
L 218.319278 392.326112 
L 319.779556 223.496778 
" clip-path="url(#p52e3858435)" style="fill: none; stroke: #0000ff; stroke-opacity: 0.2; stroke-width: 1.5; stroke-linecap: square"/>
   </g>
   <g id="line2d_50">
    <path d="M 320.695897 223.496778 
L 218.319278 150.035947 
L 141.616504 223.496778 
L 218.319278 392.324269 
L 320.695897 223.496778 
" clip-path="url(#p52e3858435)" style="fill: none; stroke: #0000ff; stroke-opacity: 0.2; stroke-width: 1.5; stroke-linecap: square"/>
   </g>
   <g id="line2d_51">
    <path d="M 316.288984 223.496778 
L 218.319278 154.490617 
L 147.135725 223.496778 
L 218.319278 392.322924 
L 316.288984 223.496778 
" clip-path="url(#p52e3858435)" style="fill: none; stroke: #0000ff; stroke-opacity: 0.2; stroke-width: 1.5; stroke-linecap: square"/>
   </g>
   <g id="line2d_52">
    <path d="M 348.773345 223.496778 
L 218.319278 117.204853 
L 104.537501 223.496778 
L 218.319278 392.300507 
L 348.773345 223.496778 
" clip-path="url(#p52e3858435)" style="fill: none; stroke: #0000ff; stroke-opacity: 0.2; stroke-width: 1.5; stroke-linecap: square"/>
   </g>
   <g id="line2d_53">
    <path d="M 287.989774 223.496778 
L 218.319278 179.605447 
L 80.276797 223.496778 
L 218.319278 392.065159 
L 287.989774 223.496778 
" clip-path="url(#p52e3858435)" style="fill: none; stroke: #0000ff; stroke-opacity: 0.2; stroke-width: 1.5; stroke-linecap: square"/>
   </g>
   <g id="line2d_54">
    <path d="M 304.719793 223.496778 
L 218.319278 165.441612 
L 106.300805 223.496778 
L 218.319278 392.292069 
L 304.719793 223.496778 
" clip-path="url(#p52e3858435)" style="fill: none; stroke: #0000ff; stroke-opacity: 0.2; stroke-width: 1.5; stroke-linecap: square"/>
   </g>
   <g id="line2d_55">
    <path d="M 303.4368 223.496778 
L 218.319278 166.594247 
L 118.226905 223.496778 
L 218.319278 392.275481 
L 303.4368 223.496778 
" clip-path="url(#p52e3858435)" style="fill: none; stroke: #0000ff; stroke-opacity: 0.2; stroke-width: 1.5; stroke-linecap: square"/>
   </g>
   <g id="line2d_56">
    <path d="M 286.781152 223.496778 
L 218.319278 180.560496 
L 84.294417 223.496778 
L 218.319278 391.992752 
L 286.781152 223.496778 
" clip-path="url(#p52e3858435)" style="fill: none; stroke: #0000ff; stroke-opacity: 0.2; stroke-width: 1.5; stroke-linecap: square"/>
   </g>
   <g id="line2d_57">
    <path d="M 323.659356 223.496778 
L 218.319278 146.94534 
L 91.644659 223.496778 
L 218.319278 392.270255 
L 323.659356 223.496778 
" clip-path="url(#p52e3858435)" style="fill: none; stroke: #0000ff; stroke-opacity: 0.2; stroke-width: 1.5; stroke-linecap: square"/>
   </g>
   <g id="line2d_58">
    <path d="M 332.156724 223.496778 
L 218.319278 137.629628 
L 132.411792 223.496778 
L 218.319278 392.329625 
L 332.156724 223.496778 
" clip-path="url(#p52e3858435)" style="fill: none; stroke: #0000ff; stroke-opacity: 0.2; stroke-width: 1.5; stroke-linecap: square"/>
   </g>
   <g id="line2d_59">
    <path d="M 344.805272 223.496778 
L 218.319278 122.374454 
L 104.92616 223.496778 
L 218.319278 392.29608 
L 344.805272 223.496778 
" clip-path="url(#p52e3858435)" style="fill: none; stroke: #0000ff; stroke-opacity: 0.2; stroke-width: 1.5; stroke-linecap: square"/>
   </g>
   <g id="line2d_60">
    <path d="M 308.590261 223.496778 
L 218.319278 161.891971 
L 142.861224 223.496778 
L 218.319278 392.302191 
L 308.590261 223.496778 
" clip-path="url(#p52e3858435)" style="fill: none; stroke: #0000ff; stroke-opacity: 0.2; stroke-width: 1.5; stroke-linecap: square"/>
   </g>
   <g id="line2d_61">
    <path d="M 345.906129 223.496778 
L 218.319278 120.959833 
L 111.804535 223.496778 
L 218.319278 392.319498 
L 345.906129 223.496778 
" clip-path="url(#p52e3858435)" style="fill: none; stroke: #0000ff; stroke-opacity: 0.2; stroke-width: 1.5; stroke-linecap: square"/>
   </g>
   <g id="line2d_62">
    <path d="M 360.88068 223.496778 
L 218.319278 100.131804 
L 88.388004 223.496778 
L 218.319278 392.318297 
L 360.88068 223.496778 
" clip-path="url(#p52e3858435)" style="fill: none; stroke: #0000ff; stroke-opacity: 0.2; stroke-width: 1.5; stroke-linecap: square"/>
   </g>
   <g id="line2d_63">
    <path d="M 241.199373 223.496778 
L 218.319278 211.225215 
L 206.004404 223.496778 
L 218.319278 392.329669 
L 241.199373 223.496778 
" clip-path="url(#p52e3858435)" style="fill: none; stroke: #0000ff; stroke-opacity: 0.2; stroke-width: 1.5; stroke-linecap: square"/>
   </g>
   <g id="patch_3">
    <path d="M 387.152233 223.496778 
C 387.152233 201.325838 382.785041 179.370482 374.30059 158.887204 
C 365.816138 138.403926 353.379428 119.791074 337.702205 104.113851 
C 322.024983 88.436629 303.412131 75.999919 282.928853 67.515467 
C 262.445575 59.031016 240.490219 54.663824 218.319278 54.663824 
C 196.148338 54.663824 174.192982 59.031016 153.709704 67.515467 
C 133.226426 75.999919 114.613574 88.436629 98.936351 104.113851 
C 83.259129 119.791074 70.822419 138.403926 62.337967 158.887204 
C 53.853516 179.370482 49.486324 201.325838 49.486324 223.496778 
C 49.486324 245.667719 53.853516 267.623075 62.337967 288.106353 
C 70.822419 308.589631 83.259129 327.202483 98.936351 342.879705 
C 114.613574 358.556928 133.226426 370.993638 153.709704 379.47809 
C 174.192982 387.962541 196.148338 392.329733 218.319278 392.329733 
C 240.490219 392.329733 262.445575 387.962541 282.928853 379.47809 
C 303.412131 370.993638 322.024983 358.556928 337.702205 342.879705 
C 353.379428 327.202483 365.816138 308.589631 374.30059 288.106353 
C 382.785041 267.623075 387.152233 245.667719 387.152233 223.496778 
" style="fill: none; stroke: #000000; stroke-width: 0.8; stroke-linejoin: miter; stroke-linecap: square"/>
   </g>
   <g id="text_10">
    <text style="font-size: 12px; font-family: 'DejaVu Sans', 'Bitstream Vera Sans', 'Computer Modern Sans Serif', 'Lucida Grande', 'Verdana', 'Geneva', 'Lucid', 'Arial', 'Helvetica', 'Avant Garde', sans-serif; text-anchor: middle" x="218.319278" y="16.318125" transform="rotate(-0 218.319278 16.318125)">Muscle Map Thigh algorithm for gracilis</text>
   </g>
  </g>
  <g id="axes_2">
   <g id="patch_4">
    <path d="M 813.752233 223.496778 
C 813.752233 201.325838 809.385041 179.370482 800.90059 158.887204 
C 792.416138 138.403926 779.979428 119.791074 764.302205 104.113851 
C 748.624983 88.436629 730.012131 75.999919 709.528853 67.515467 
C 689.045575 59.031016 667.090219 54.663824 644.919278 54.663824 
C 622.748338 54.663824 600.792982 59.031016 580.309704 67.515467 
C 559.826426 75.999919 541.213574 88.436629 525.536351 104.113851 
C 509.859129 119.791074 497.422419 138.403926 488.937967 158.887204 
C 480.453516 179.370482 476.086324 201.325838 476.086324 223.496778 
C 476.086324 245.667719 480.453516 267.623075 488.937967 288.106353 
C 497.422419 308.589631 509.859129 327.202483 525.536351 342.879705 
C 541.213574 358.556928 559.826426 370.993638 580.309704 379.47809 
C 600.792982 387.962541 622.748338 392.329733 644.919278 392.329733 
C 667.090219 392.329733 689.045575 387.962541 709.528853 379.47809 
C 730.012131 370.993638 748.624983 358.556928 764.302205 342.879705 
C 779.979428 327.202483 792.416138 308.589631 800.90059 288.106353 
C 809.385041 267.623075 813.752233 245.667719 813.752233 223.496778 
M 644.919278 223.496778 
C 644.919278 223.496778 644.919278 223.496778 644.919278 223.496778 
C 644.919278 223.496778 644.919278 223.496778 644.919278 223.496778 
C 644.919278 223.496778 644.919278 223.496778 644.919278 223.496778 
C 644.919278 223.496778 644.919278 223.496778 644.919278 223.496778 
C 644.919278 223.496778 644.919278 223.496778 644.919278 223.496778 
C 644.919278 223.496778 644.919278 223.496778 644.919278 223.496778 
C 644.919278 223.496778 644.919278 223.496778 644.919278 223.496778 
C 644.919278 223.496778 644.919278 223.496778 644.919278 223.496778 
C 644.919278 223.496778 644.919278 223.496778 644.919278 223.496778 
C 644.919278 223.496778 644.919278 223.496778 644.919278 223.496778 
C 644.919278 223.496778 644.919278 223.496778 644.919278 223.496778 
C 644.919278 223.496778 644.919278 223.496778 644.919278 223.496778 
C 644.919278 223.496778 644.919278 223.496778 644.919278 223.496778 
C 644.919278 223.496778 644.919278 223.496778 644.919278 223.496778 
C 644.919278 223.496778 644.919278 223.496778 644.919278 223.496778 
C 644.919278 223.496778 644.919278 223.496778 644.919278 223.496778 
z
" style="fill: #ffffff"/>
   </g>
   <g id="matplotlib.axis_3">
    <g id="xtick_5">
     <g id="line2d_64">
      <path d="M 644.919278 223.496778 
L 813.752233 223.496778 
" clip-path="url(#p3ef4d842be)" style="fill: none; stroke: #b0b0b0; stroke-width: 0.8; stroke-linecap: square"/>
     </g>
     <g id="text_11">
      <text style="font-size: 10px; font-family: 'DejaVu Sans', 'Bitstream Vera Sans', 'Computer Modern Sans Serif', 'Lucida Grande', 'Verdana', 'Geneva', 'Lucid', 'Arial', 'Helvetica', 'Avant Garde', sans-serif; text-anchor: middle" x="841.258869" y="226.256153" transform="rotate(-0 841.258869 226.256153)">Dice</text>
     </g>
    </g>
    <g id="xtick_6">
     <g id="line2d_65">
      <path d="M 644.919278 223.496778 
L 644.919278 54.663824 
" clip-path="url(#p3ef4d842be)" style="fill: none; stroke: #b0b0b0; stroke-width: 0.8; stroke-linecap: square"/>
     </g>
     <g id="text_12">
      <text style="font-size: 10px; font-family: 'DejaVu Sans', 'Bitstream Vera Sans', 'Computer Modern Sans Serif', 'Lucida Grande', 'Verdana', 'Geneva', 'Lucid', 'Arial', 'Helvetica', 'Avant Garde', sans-serif; text-anchor: middle" x="644.919278" y="29.916563" transform="rotate(-0 644.919278 29.916563)">Jaccard</text>
     </g>
    </g>
    <g id="xtick_7">
     <g id="line2d_66">
      <path d="M 644.919278 223.496778 
L 476.086324 223.496778 
" clip-path="url(#p3ef4d842be)" style="fill: none; stroke: #b0b0b0; stroke-width: 0.8; stroke-linecap: square"/>
     </g>
     <g id="text_13">
      <text style="font-size: 10px; font-family: 'DejaVu Sans', 'Bitstream Vera Sans', 'Computer Modern Sans Serif', 'Lucida Grande', 'Verdana', 'Geneva', 'Lucid', 'Arial', 'Helvetica', 'Avant Garde', sans-serif; text-anchor: middle" x="448.579687" y="226.256153" transform="rotate(-0 448.579687 226.256153)">1 - FN</text>
     </g>
    </g>
    <g id="xtick_8">
     <g id="line2d_67">
      <path d="M 644.919278 223.496778 
L 644.919278 392.329733 
" clip-path="url(#p3ef4d842be)" style="fill: none; stroke: #b0b0b0; stroke-width: 0.8; stroke-linecap: square"/>
     </g>
     <g id="text_14">
      <text style="font-size: 10px; font-family: 'DejaVu Sans', 'Bitstream Vera Sans', 'Computer Modern Sans Serif', 'Lucida Grande', 'Verdana', 'Geneva', 'Lucid', 'Arial', 'Helvetica', 'Avant Garde', sans-serif; text-anchor: middle" x="644.919278" y="422.595744" transform="rotate(-0 644.919278 422.595744)">1 - FP</text>
     </g>
    </g>
   </g>
   <g id="matplotlib.axis_4">
    <g id="ytick_6">
     <g id="line2d_68">
      <path d="M 678.685869 223.496778 
C 678.685869 219.06259 677.812431 214.671519 676.115541 210.574864 
C 674.41865 206.478208 671.931308 202.755637 668.795864 199.620193 
C 665.660419 196.484749 661.937849 193.997407 657.841193 192.300516 
C 653.744538 190.603626 649.353466 189.730188 644.919278 189.730188 
C 640.48509 189.730188 636.094019 190.603626 631.997364 192.300516 
C 627.900708 193.997407 624.178137 196.484749 621.042693 199.620193 
C 617.907249 202.755637 615.419907 206.478208 613.723016 210.574864 
C 612.026126 214.671519 611.152687 219.06259 611.152687 223.496778 
C 611.152687 227.930966 612.026126 232.322038 613.723016 236.418693 
C 615.419907 240.515349 617.907249 244.237919 621.042693 247.373364 
C 624.178137 250.508808 627.900708 252.99615 631.997364 254.693041 
C 636.094019 256.389931 640.48509 257.263369 644.919278 257.263369 
C 649.353466 257.263369 653.744538 256.389931 657.841193 254.693041 
C 661.937849 252.99615 665.660419 250.508808 668.795864 247.373364 
C 671.931308 244.237919 674.41865 240.515349 676.115541 236.418693 
C 677.812431 232.322038 678.685869 227.930966 678.685869 223.496778 
" clip-path="url(#p3ef4d842be)" style="fill: none; stroke: #b0b0b0; stroke-width: 0.8; stroke-linecap: square"/>
     </g>
     <g id="text_15">
      <text style="font-size: 10px; font-family: 'DejaVu Sans', 'Bitstream Vera Sans', 'Computer Modern Sans Serif', 'Lucida Grande', 'Verdana', 'Geneva', 'Lucid', 'Arial', 'Helvetica', 'Avant Garde', sans-serif; text-anchor: start" x="676.115541" y="208.495176" transform="rotate(-0 676.115541 208.495176)">0.2</text>
     </g>
    </g>
    <g id="ytick_7">
     <g id="line2d_69">
      <path d="M 712.45246 223.496778 
C 712.45246 214.628402 710.705583 205.84626 707.311803 197.652949 
C 703.918022 189.459637 698.943338 182.014497 692.672449 175.743608 
C 686.40156 169.472719 678.956419 164.498035 670.763108 161.104254 
C 662.569797 157.710473 653.787655 155.963597 644.919278 155.963597 
C 636.050902 155.963597 627.26876 157.710473 619.075449 161.104254 
C 610.882137 164.498035 603.436997 169.472719 597.166108 175.743608 
C 590.895219 182.014497 585.920535 189.459637 582.526754 197.652949 
C 579.132973 205.84626 577.386097 214.628402 577.386097 223.496778 
C 577.386097 232.365155 579.132973 241.147297 582.526754 249.340608 
C 585.920535 257.533919 590.895219 264.97906 597.166108 271.249949 
C 603.436997 277.520838 610.882137 282.495522 619.075449 285.889303 
C 627.26876 289.283083 636.050902 291.02996 644.919278 291.02996 
C 653.787655 291.02996 662.569797 289.283083 670.763108 285.889303 
C 678.956419 282.495522 686.40156 277.520838 692.672449 271.249949 
C 698.943338 264.97906 703.918022 257.533919 707.311803 249.340608 
C 710.705583 241.147297 712.45246 232.365155 712.45246 223.496778 
" clip-path="url(#p3ef4d842be)" style="fill: none; stroke: #b0b0b0; stroke-width: 0.8; stroke-linecap: square"/>
     </g>
     <g id="text_16">
      <text style="font-size: 10px; font-family: 'DejaVu Sans', 'Bitstream Vera Sans', 'Computer Modern Sans Serif', 'Lucida Grande', 'Verdana', 'Geneva', 'Lucid', 'Arial', 'Helvetica', 'Avant Garde', sans-serif; text-anchor: start" x="707.311803" y="195.573261" transform="rotate(-0 707.311803 195.573261)">0.4</text>
     </g>
    </g>
    <g id="ytick_8">
     <g id="line2d_70">
      <path d="M 746.219051 223.496778 
C 746.219051 210.194214 743.598736 197.021001 738.508065 184.731034 
C 733.417394 172.441067 725.955368 161.273356 716.549035 151.867022 
C 707.142701 142.460689 695.97499 134.998663 683.685023 129.907992 
C 671.395056 124.817321 658.221843 122.197006 644.919278 122.197006 
C 631.616714 122.197006 618.443501 124.817321 606.153534 129.907992 
C 593.863567 134.998663 582.695856 142.460689 573.289522 151.867022 
C 563.883189 161.273356 556.421163 172.441067 551.330492 184.731034 
C 546.239821 197.021001 543.619506 210.194214 543.619506 223.496778 
C 543.619506 236.799343 546.239821 249.972556 551.330492 262.262523 
C 556.421163 274.55249 563.883189 285.720201 573.289522 295.126535 
C 582.695856 304.532868 593.863567 311.994894 606.153534 317.085565 
C 618.443501 322.176236 631.616714 324.796551 644.919278 324.796551 
C 658.221843 324.796551 671.395056 322.176236 683.685023 317.085565 
C 695.97499 311.994894 707.142701 304.532868 716.549035 295.126535 
C 725.955368 285.720201 733.417394 274.55249 738.508065 262.262523 
C 743.598736 249.972556 746.219051 236.799343 746.219051 223.496778 
" clip-path="url(#p3ef4d842be)" style="fill: none; stroke: #b0b0b0; stroke-width: 0.8; stroke-linecap: square"/>
     </g>
     <g id="text_17">
      <text style="font-size: 10px; font-family: 'DejaVu Sans', 'Bitstream Vera Sans', 'Computer Modern Sans Serif', 'Lucida Grande', 'Verdana', 'Geneva', 'Lucid', 'Arial', 'Helvetica', 'Avant Garde', sans-serif; text-anchor: start" x="738.508065" y="182.651346" transform="rotate(-0 738.508065 182.651346)">0.6</text>
     </g>
    </g>
    <g id="ytick_9">
     <g id="line2d_71">
      <path d="M 779.985642 223.496778 
C 779.985642 205.760026 776.491889 188.195741 769.704327 171.809119 
C 762.916766 155.422496 752.967398 140.532215 740.42562 127.990437 
C 727.883842 115.448659 712.993561 105.499291 696.606938 98.71173 
C 680.220316 91.924168 662.656031 88.430415 644.919278 88.430415 
C 627.182526 88.430415 609.618241 91.924168 593.231619 98.71173 
C 576.844996 105.499291 561.954715 115.448659 549.412937 127.990437 
C 536.871159 140.532215 526.921791 155.422496 520.13423 171.809119 
C 513.346668 188.195741 509.852915 205.760026 509.852915 223.496778 
C 509.852915 241.233531 513.346668 258.797816 520.13423 275.184438 
C 526.921791 291.571061 536.871159 306.461342 549.412937 319.00312 
C 561.954715 331.544898 576.844996 341.494266 593.231619 348.281827 
C 609.618241 355.069389 627.182526 358.563142 644.919278 358.563142 
C 662.656031 358.563142 680.220316 355.069389 696.606938 348.281827 
C 712.993561 341.494266 727.883842 331.544898 740.42562 319.00312 
C 752.967398 306.461342 762.916766 291.571061 769.704327 275.184438 
C 776.491889 258.797816 779.985642 241.233531 779.985642 223.496778 
" clip-path="url(#p3ef4d842be)" style="fill: none; stroke: #b0b0b0; stroke-width: 0.8; stroke-linecap: square"/>
     </g>
     <g id="text_18">
      <text style="font-size: 10px; font-family: 'DejaVu Sans', 'Bitstream Vera Sans', 'Computer Modern Sans Serif', 'Lucida Grande', 'Verdana', 'Geneva', 'Lucid', 'Arial', 'Helvetica', 'Avant Garde', sans-serif; text-anchor: start" x="769.704327" y="169.729431" transform="rotate(-0 769.704327 169.729431)">0.8</text>
     </g>
    </g>
    <g id="ytick_10">
     <g id="line2d_72">
      <path d="M 813.752233 223.496778 
C 813.752233 201.325838 809.385041 179.370482 800.90059 158.887204 
C 792.416138 138.403926 779.979428 119.791074 764.302205 104.113851 
C 748.624983 88.436629 730.012131 75.999919 709.528853 67.515467 
C 689.045575 59.031016 667.090219 54.663824 644.919278 54.663824 
C 622.748338 54.663824 600.792982 59.031016 580.309704 67.515467 
C 559.826426 75.999919 541.213574 88.436629 525.536351 104.113851 
C 509.859129 119.791074 497.422419 138.403926 488.937967 158.887204 
C 480.453516 179.370482 476.086324 201.325838 476.086324 223.496778 
C 476.086324 245.667719 480.453516 267.623075 488.937967 288.106353 
C 497.422419 308.589631 509.859129 327.202483 525.536351 342.879705 
C 541.213574 358.556928 559.826426 370.993638 580.309704 379.47809 
C 600.792982 387.962541 622.748338 392.329733 644.919278 392.329733 
C 667.090219 392.329733 689.045575 387.962541 709.528853 379.47809 
C 730.012131 370.993638 748.624983 358.556928 764.302205 342.879705 
C 779.979428 327.202483 792.416138 308.589631 800.90059 288.106353 
C 809.385041 267.623075 813.752233 245.667719 813.752233 223.496778 
" clip-path="url(#p3ef4d842be)" style="fill: none; stroke: #b0b0b0; stroke-width: 0.8; stroke-linecap: square"/>
     </g>
     <g id="text_19">
      <text style="font-size: 10px; font-family: 'DejaVu Sans', 'Bitstream Vera Sans', 'Computer Modern Sans Serif', 'Lucida Grande', 'Verdana', 'Geneva', 'Lucid', 'Arial', 'Helvetica', 'Avant Garde', sans-serif; text-anchor: start" x="800.90059" y="156.807516" transform="rotate(-0 800.90059 156.807516)">1.0</text>
     </g>
    </g>
   </g>
   <g id="line2d_73">
    <path d="M 788.06396 223.496778 
L 644.919278 99.255636 
L 503.263138 223.496778 
L 644.919278 392.318408 
L 788.06396 223.496778 
" clip-path="url(#p3ef4d842be)" style="fill: none; stroke: #008000; stroke-opacity: 0.2; stroke-width: 1.5; stroke-linecap: square"/>
   </g>
   <g id="line2d_74">
    <path d="M 786.798579 223.496778 
L 644.919278 101.149792 
L 502.009494 223.496778 
L 644.919278 392.30921 
L 786.798579 223.496778 
" clip-path="url(#p3ef4d842be)" style="fill: none; stroke: #008000; stroke-opacity: 0.2; stroke-width: 1.5; stroke-linecap: square"/>
   </g>
   <g id="line2d_75">
    <path d="M 789.895658 223.496778 
L 644.919278 96.469686 
L 504.392552 223.496778 
L 644.919278 392.320687 
L 789.895658 223.496778 
" clip-path="url(#p3ef4d842be)" style="fill: none; stroke: #008000; stroke-opacity: 0.2; stroke-width: 1.5; stroke-linecap: square"/>
   </g>
   <g id="line2d_76">
    <path d="M 784.715655 223.496778 
L 644.919278 104.214972 
L 500.332724 223.496778 
L 644.919278 392.304768 
L 784.715655 223.496778 
" clip-path="url(#p3ef4d842be)" style="fill: none; stroke: #008000; stroke-opacity: 0.2; stroke-width: 1.5; stroke-linecap: square"/>
   </g>
   <g id="line2d_77">
    <path d="M 786.012807 223.496778 
L 644.919278 102.313746 
L 506.74901 223.496778 
L 644.919278 392.317429 
L 786.012807 223.496778 
" clip-path="url(#p3ef4d842be)" style="fill: none; stroke: #008000; stroke-opacity: 0.2; stroke-width: 1.5; stroke-linecap: square"/>
   </g>
   <g id="line2d_78">
    <path d="M 784.550289 223.496778 
L 644.919278 104.455557 
L 507.38083 223.496778 
L 644.919278 392.311772 
L 784.550289 223.496778 
" clip-path="url(#p3ef4d842be)" style="fill: none; stroke: #008000; stroke-opacity: 0.2; stroke-width: 1.5; stroke-linecap: square"/>
   </g>
   <g id="line2d_79">
    <path d="M 784.750089 223.496778 
L 644.919278 104.164824 
L 501.258153 223.496778 
L 644.919278 392.304435 
L 784.750089 223.496778 
" clip-path="url(#p3ef4d842be)" style="fill: none; stroke: #008000; stroke-opacity: 0.2; stroke-width: 1.5; stroke-linecap: square"/>
   </g>
   <g id="line2d_80">
    <path d="M 781.693866 223.496778 
L 644.919278 108.548768 
L 494.842696 223.496778 
L 644.919278 392.296332 
L 781.693866 223.496778 
" clip-path="url(#p3ef4d842be)" style="fill: none; stroke: #008000; stroke-opacity: 0.2; stroke-width: 1.5; stroke-linecap: square"/>
   </g>
   <g id="line2d_81">
    <path d="M 787.296705 223.496778 
L 644.919278 100.407074 
L 496.158966 223.496778 
L 644.919278 392.304804 
L 787.296705 223.496778 
" clip-path="url(#p3ef4d842be)" style="fill: none; stroke: #008000; stroke-opacity: 0.2; stroke-width: 1.5; stroke-linecap: square"/>
   </g>
   <g id="line2d_82">
    <path d="M 784.249013 223.496778 
L 644.919278 104.892843 
L 494.32941 223.496778 
L 644.919278 392.297317 
L 784.249013 223.496778 
" clip-path="url(#p3ef4d842be)" style="fill: none; stroke: #008000; stroke-opacity: 0.2; stroke-width: 1.5; stroke-linecap: square"/>
   </g>
   <g id="line2d_83">
    <path d="M 783.852786 223.496778 
L 644.919278 105.465926 
L 496.165312 223.496778 
L 644.919278 392.298087 
L 783.852786 223.496778 
" clip-path="url(#p3ef4d842be)" style="fill: none; stroke: #008000; stroke-opacity: 0.2; stroke-width: 1.5; stroke-linecap: square"/>
   </g>
   <g id="line2d_84">
    <path d="M 779.862318 223.496778 
L 644.919278 111.112654 
L 496.018085 223.496778 
L 644.919278 392.295654 
L 779.862318 223.496778 
" clip-path="url(#p3ef4d842be)" style="fill: none; stroke: #008000; stroke-opacity: 0.2; stroke-width: 1.5; stroke-linecap: square"/>
   </g>
   <g id="line2d_85">
    <path d="M 790.190171 223.496778 
L 644.919278 96.016792 
L 487.664945 223.496778 
L 644.919278 392.297836 
L 790.190171 223.496778 
" clip-path="url(#p3ef4d842be)" style="fill: none; stroke: #008000; stroke-opacity: 0.2; stroke-width: 1.5; stroke-linecap: square"/>
   </g>
   <g id="line2d_86">
    <path d="M 790.303613 223.496778 
L 644.919278 95.841974 
L 488.004678 223.496778 
L 644.919278 392.298889 
L 790.303613 223.496778 
" clip-path="url(#p3ef4d842be)" style="fill: none; stroke: #008000; stroke-opacity: 0.2; stroke-width: 1.5; stroke-linecap: square"/>
   </g>
   <g id="line2d_87">
    <path d="M 791.980427 223.496778 
L 644.919278 93.233671 
L 489.544825 223.496778 
L 644.919278 392.302642 
L 791.980427 223.496778 
" clip-path="url(#p3ef4d842be)" style="fill: none; stroke: #008000; stroke-opacity: 0.2; stroke-width: 1.5; stroke-linecap: square"/>
   </g>
   <g id="line2d_88">
    <path d="M 791.631967 223.496778 
L 644.919278 93.779476 
L 486.023847 223.496778 
L 644.919278 392.299734 
L 791.631967 223.496778 
" clip-path="url(#p3ef4d842be)" style="fill: none; stroke: #008000; stroke-opacity: 0.2; stroke-width: 1.5; stroke-linecap: square"/>
   </g>
   <g id="line2d_89">
    <path d="M 792.335679 223.496778 
L 644.919278 92.675171 
L 487.559045 223.496778 
L 644.919278 392.301653 
L 792.335679 223.496778 
" clip-path="url(#p3ef4d842be)" style="fill: none; stroke: #008000; stroke-opacity: 0.2; stroke-width: 1.5; stroke-linecap: square"/>
   </g>
   <g id="line2d_90">
    <path d="M 792.168461 223.496778 
L 644.919278 92.938318 
L 484.784694 223.496778 
L 644.919278 392.298241 
L 792.168461 223.496778 
" clip-path="url(#p3ef4d842be)" style="fill: none; stroke: #008000; stroke-opacity: 0.2; stroke-width: 1.5; stroke-linecap: square"/>
   </g>
   <g id="line2d_91">
    <path d="M 787.116703 223.496778 
L 644.919278 100.675898 
L 507.254433 223.496778 
L 644.919278 392.321148 
L 787.116703 223.496778 
" clip-path="url(#p3ef4d842be)" style="fill: none; stroke: #008000; stroke-opacity: 0.2; stroke-width: 1.5; stroke-linecap: square"/>
   </g>
   <g id="line2d_92">
    <path d="M 790.827534 223.496778 
L 644.919278 95.031909 
L 498.889055 223.496778 
L 644.919278 392.320245 
L 790.827534 223.496778 
" clip-path="url(#p3ef4d842be)" style="fill: none; stroke: #008000; stroke-opacity: 0.2; stroke-width: 1.5; stroke-linecap: square"/>
   </g>
   <g id="line2d_93">
    <path d="M 792.918481 223.496778 
L 644.919278 91.754402 
L 490.42386 223.496778 
L 644.919278 392.30892 
L 792.918481 223.496778 
" clip-path="url(#p3ef4d842be)" style="fill: none; stroke: #008000; stroke-opacity: 0.2; stroke-width: 1.5; stroke-linecap: square"/>
   </g>
   <g id="line2d_94">
    <path d="M 787.984709 223.496778 
L 644.919278 99.37499 
L 487.427699 223.496778 
L 644.919278 392.299349 
L 787.984709 223.496778 
" clip-path="url(#p3ef4d842be)" style="fill: none; stroke: #008000; stroke-opacity: 0.2; stroke-width: 1.5; stroke-linecap: square"/>
   </g>
   <g id="line2d_95">
    <path d="M 791.211333 223.496778 
L 644.919278 94.43568 
L 496.546954 223.496778 
L 644.919278 392.314199 
L 791.211333 223.496778 
" clip-path="url(#p3ef4d842be)" style="fill: none; stroke: #008000; stroke-opacity: 0.2; stroke-width: 1.5; stroke-linecap: square"/>
   </g>
   <g id="line2d_96">
    <path d="M 795.405769 223.496778 
L 644.919278 87.76028 
L 489.287577 223.496778 
L 644.919278 392.308802 
L 795.405769 223.496778 
" clip-path="url(#p3ef4d842be)" style="fill: none; stroke: #008000; stroke-opacity: 0.2; stroke-width: 1.5; stroke-linecap: square"/>
   </g>
   <g id="line2d_97">
    <path d="M 786.403521 223.496778 
L 644.919278 101.736151 
L 512.380385 223.496778 
L 644.919278 392.319632 
L 786.403521 223.496778 
" clip-path="url(#p3ef4d842be)" style="fill: none; stroke: #008000; stroke-opacity: 0.2; stroke-width: 1.5; stroke-linecap: square"/>
   </g>
   <g id="line2d_98">
    <path d="M 793.364705 223.496778 
L 644.919278 91.045579 
L 496.733702 223.496778 
L 644.919278 392.317359 
L 793.364705 223.496778 
" clip-path="url(#p3ef4d842be)" style="fill: none; stroke: #008000; stroke-opacity: 0.2; stroke-width: 1.5; stroke-linecap: square"/>
   </g>
   <g id="line2d_99">
    <path d="M 783.209088 223.496778 
L 644.919278 106.392084 
L 492.412256 223.496778 
L 644.919278 392.296264 
L 783.209088 223.496778 
" clip-path="url(#p3ef4d842be)" style="fill: none; stroke: #008000; stroke-opacity: 0.2; stroke-width: 1.5; stroke-linecap: square"/>
   </g>
   <g id="line2d_100">
    <path d="M 787.771001 223.496778 
L 644.919278 99.696357 
L 498.284959 223.496778 
L 644.919278 392.312993 
L 787.771001 223.496778 
" clip-path="url(#p3ef4d842be)" style="fill: none; stroke: #008000; stroke-opacity: 0.2; stroke-width: 1.5; stroke-linecap: square"/>
   </g>
   <g id="line2d_101">
    <path d="M 784.543764 223.496778 
L 644.919278 104.465043 
L 502.233406 223.496778 
L 644.919278 392.312025 
L 784.543764 223.496778 
" clip-path="url(#p3ef4d842be)" style="fill: none; stroke: #008000; stroke-opacity: 0.2; stroke-width: 1.5; stroke-linecap: square"/>
   </g>
   <g id="line2d_102">
    <path d="M 788.703453 223.496778 
L 644.919278 98.28897 
L 500.560733 223.496778 
L 644.919278 392.315454 
L 788.703453 223.496778 
" clip-path="url(#p3ef4d842be)" style="fill: none; stroke: #008000; stroke-opacity: 0.2; stroke-width: 1.5; stroke-linecap: square"/>
   </g>
   <g id="line2d_103">
    <path d="M 784.749901 223.496778 
L 644.919278 104.165098 
L 513.692474 223.496778 
L 644.919278 392.324336 
L 784.749901 223.496778 
" clip-path="url(#p3ef4d842be)" style="fill: none; stroke: #008000; stroke-opacity: 0.2; stroke-width: 1.5; stroke-linecap: square"/>
   </g>
   <g id="line2d_104">
    <path d="M 784.044931 223.496778 
L 644.919278 105.188304 
L 498.807082 223.496778 
L 644.919278 392.30914 
L 784.044931 223.496778 
" clip-path="url(#p3ef4d842be)" style="fill: none; stroke: #008000; stroke-opacity: 0.2; stroke-width: 1.5; stroke-linecap: square"/>
   </g>
   <g id="line2d_105">
    <path d="M 780.760288 223.496778 
L 644.919278 109.861448 
L 504.581034 223.496778 
L 644.919278 392.317012 
L 780.760288 223.496778 
" clip-path="url(#p3ef4d842be)" style="fill: none; stroke: #008000; stroke-opacity: 0.2; stroke-width: 1.5; stroke-linecap: square"/>
   </g>
   <g id="line2d_106">
    <path d="M 782.977714 223.496778 
L 644.919278 106.723527 
L 499.032787 223.496778 
L 644.919278 392.307889 
L 782.977714 223.496778 
" clip-path="url(#p3ef4d842be)" style="fill: none; stroke: #008000; stroke-opacity: 0.2; stroke-width: 1.5; stroke-linecap: square"/>
   </g>
   <g id="line2d_107">
    <path d="M 755.967053 223.496778 
L 644.919278 140.764988 
L 560.386493 223.496778 
L 644.919278 392.328409 
L 755.967053 223.496778 
" clip-path="url(#p3ef4d842be)" style="fill: none; stroke: #008000; stroke-opacity: 0.2; stroke-width: 1.5; stroke-linecap: square"/>
   </g>
   <g id="line2d_108">
    <path d="M 764.793643 223.496778 
L 644.919278 130.569648 
L 550.861133 223.496778 
L 644.919278 392.326327 
L 764.793643 223.496778 
" clip-path="url(#p3ef4d842be)" style="fill: none; stroke: #008000; stroke-opacity: 0.2; stroke-width: 1.5; stroke-linecap: square"/>
   </g>
   <g id="line2d_109">
    <path d="M 783.534587 223.496778 
L 644.919278 105.924502 
L 522.384487 223.496778 
L 644.919278 392.324235 
L 783.534587 223.496778 
" clip-path="url(#p3ef4d842be)" style="fill: none; stroke: #008000; stroke-opacity: 0.2; stroke-width: 1.5; stroke-linecap: square"/>
   </g>
   <g id="line2d_110">
    <path d="M 776.5624 223.496778 
L 644.919278 115.616978 
L 523.217322 223.496778 
L 644.919278 392.304126 
L 776.5624 223.496778 
" clip-path="url(#p3ef4d842be)" style="fill: none; stroke: #008000; stroke-opacity: 0.2; stroke-width: 1.5; stroke-linecap: square"/>
   </g>
   <g id="line2d_111">
    <path d="M 744.796082 223.496778 
L 644.919278 152.583118 
L 573.292592 223.496778 
L 644.919278 392.328258 
L 744.796082 223.496778 
" clip-path="url(#p3ef4d842be)" style="fill: none; stroke: #008000; stroke-opacity: 0.2; stroke-width: 1.5; stroke-linecap: square"/>
   </g>
   <g id="line2d_112">
    <path d="M 756.282571 223.496778 
L 644.919278 140.414249 
L 554.87333 223.496778 
L 644.919278 392.320465 
L 756.282571 223.496778 
" clip-path="url(#p3ef4d842be)" style="fill: none; stroke: #008000; stroke-opacity: 0.2; stroke-width: 1.5; stroke-linecap: square"/>
   </g>
   <g id="line2d_113">
    <path d="M 746.306529 223.496778 
L 644.919278 151.050501 
L 570.59259 223.496778 
L 644.919278 392.326297 
L 746.306529 223.496778 
" clip-path="url(#p3ef4d842be)" style="fill: none; stroke: #008000; stroke-opacity: 0.2; stroke-width: 1.5; stroke-linecap: square"/>
   </g>
   <g id="line2d_114">
    <path d="M 747.563844 223.496778 
L 644.919278 149.759709 
L 566.860622 223.496778 
L 644.919278 392.318733 
L 747.563844 223.496778 
" clip-path="url(#p3ef4d842be)" style="fill: none; stroke: #008000; stroke-opacity: 0.2; stroke-width: 1.5; stroke-linecap: square"/>
   </g>
   <g id="line2d_115">
    <path d="M 781.048622 223.496778 
L 644.919278 109.457328 
L 526.658967 223.496778 
L 644.919278 392.314238 
L 781.048622 223.496778 
" clip-path="url(#p3ef4d842be)" style="fill: none; stroke: #008000; stroke-opacity: 0.2; stroke-width: 1.5; stroke-linecap: square"/>
   </g>
   <g id="line2d_116">
    <path d="M 791.977963 223.496778 
L 644.919278 93.237538 
L 497.003414 223.496778 
L 644.919278 392.280702 
L 791.977963 223.496778 
" clip-path="url(#p3ef4d842be)" style="fill: none; stroke: #008000; stroke-opacity: 0.2; stroke-width: 1.5; stroke-linecap: square"/>
   </g>
   <g id="line2d_117">
    <path d="M 761.797358 223.496778 
L 644.919278 134.121964 
L 553.171981 223.496778 
L 644.919278 392.326725 
L 761.797358 223.496778 
" clip-path="url(#p3ef4d842be)" style="fill: none; stroke: #008000; stroke-opacity: 0.2; stroke-width: 1.5; stroke-linecap: square"/>
   </g>
   <g id="line2d_118">
    <path d="M 773.638928 223.496778 
L 644.919278 119.488605 
L 540.493748 223.496778 
L 644.919278 392.32911 
L 773.638928 223.496778 
" clip-path="url(#p3ef4d842be)" style="fill: none; stroke: #008000; stroke-opacity: 0.2; stroke-width: 1.5; stroke-linecap: square"/>
   </g>
   <g id="line2d_119">
    <path d="M 782.031022 223.496778 
L 644.919278 108.071697 
L 529.475881 223.496778 
L 644.919278 392.329625 
L 782.031022 223.496778 
" clip-path="url(#p3ef4d842be)" style="fill: none; stroke: #008000; stroke-opacity: 0.2; stroke-width: 1.5; stroke-linecap: square"/>
   </g>
   <g id="line2d_120">
    <path d="M 788.783124 223.496778 
L 644.919278 98.168092 
L 519.29144 223.496778 
L 644.919278 392.329325 
L 788.783124 223.496778 
" clip-path="url(#p3ef4d842be)" style="fill: none; stroke: #008000; stroke-opacity: 0.2; stroke-width: 1.5; stroke-linecap: square"/>
   </g>
   <g id="line2d_121">
    <path d="M 770.275385 223.496778 
L 644.919278 123.811123 
L 544.70502 223.496778 
L 644.919278 392.328701 
L 770.275385 223.496778 
" clip-path="url(#p3ef4d842be)" style="fill: none; stroke: #008000; stroke-opacity: 0.2; stroke-width: 1.5; stroke-linecap: square"/>
   </g>
   <g id="line2d_122">
    <path d="M 775.485769 223.496778 
L 644.919278 117.055502 
L 527.75944 223.496778 
L 644.919278 392.301865 
L 775.485769 223.496778 
" clip-path="url(#p3ef4d842be)" style="fill: none; stroke: #008000; stroke-opacity: 0.2; stroke-width: 1.5; stroke-linecap: square"/>
   </g>
   <g id="line2d_123">
    <path d="M 754.182654 223.496778 
L 644.919278 142.730343 
L 564.021037 223.496778 
L 644.919278 392.329454 
L 754.182654 223.496778 
" clip-path="url(#p3ef4d842be)" style="fill: none; stroke: #008000; stroke-opacity: 0.2; stroke-width: 1.5; stroke-linecap: square"/>
   </g>
   <g id="line2d_124">
    <path d="M 782.148783 223.496778 
L 644.919278 107.90469 
L 528.503982 223.496778 
L 644.919278 392.327927 
L 782.148783 223.496778 
" clip-path="url(#p3ef4d842be)" style="fill: none; stroke: #008000; stroke-opacity: 0.2; stroke-width: 1.5; stroke-linecap: square"/>
   </g>
   <g id="line2d_125">
    <path d="M 784.782218 223.496778 
L 644.919278 104.118018 
L 524.737358 223.496778 
L 644.919278 392.328077 
L 784.782218 223.496778 
" clip-path="url(#p3ef4d842be)" style="fill: none; stroke: #008000; stroke-opacity: 0.2; stroke-width: 1.5; stroke-linecap: square"/>
   </g>
   <g id="line2d_126">
    <path d="M 657.305443 223.496778 
L 644.919278 217.067873 
L 638.490373 223.496778 
L 644.919278 392.329733 
L 657.305443 223.496778 
" clip-path="url(#p3ef4d842be)" style="fill: none; stroke: #008000; stroke-opacity: 0.2; stroke-width: 1.5; stroke-linecap: square"/>
   </g>
   <g id="patch_5">
    <path d="M 813.752233 223.496778 
C 813.752233 201.325838 809.385041 179.370482 800.90059 158.887204 
C 792.416138 138.403926 779.979428 119.791074 764.302205 104.113851 
C 748.624983 88.436629 730.012131 75.999919 709.528853 67.515467 
C 689.045575 59.031016 667.090219 54.663824 644.919278 54.663824 
C 622.748338 54.663824 600.792982 59.031016 580.309704 67.515467 
C 559.826426 75.999919 541.213574 88.436629 525.536351 104.113851 
C 509.859129 119.791074 497.422419 138.403926 488.937967 158.887204 
C 480.453516 179.370482 476.086324 201.325838 476.086324 223.496778 
C 476.086324 245.667719 480.453516 267.623075 488.937967 288.106353 
C 497.422419 308.589631 509.859129 327.202483 525.536351 342.879705 
C 541.213574 358.556928 559.826426 370.993638 580.309704 379.47809 
C 600.792982 387.962541 622.748338 392.329733 644.919278 392.329733 
C 667.090219 392.329733 689.045575 387.962541 709.528853 379.47809 
C 730.012131 370.993638 748.624983 358.556928 764.302205 342.879705 
C 779.979428 327.202483 792.416138 308.589631 800.90059 288.106353 
C 809.385041 267.623075 813.752233 245.667719 813.752233 223.496778 
" style="fill: none; stroke: #000000; stroke-width: 0.8; stroke-linejoin: miter; stroke-linecap: square"/>
   </g>
   <g id="text_20">
    <text style="font-size: 12px; font-family: 'DejaVu Sans', 'Bitstream Vera Sans', 'Computer Modern Sans Serif', 'Lucida Grande', 'Verdana', 'Geneva', 'Lucid', 'Arial', 'Helvetica', 'Avant Garde', sans-serif; text-anchor: middle" x="644.919278" y="16.318125" transform="rotate(-0 644.919278 16.318125)">Muscle Map Body algorithm for gracilis</text>
   </g>
  </g>
 </g>
 <defs>
  <clipPath id="p52e3858435">
   <path d="M 387.152233 223.496778 
C 387.152233 201.325838 382.785041 179.370482 374.30059 158.887204 
C 365.816138 138.403926 353.379428 119.791074 337.702205 104.113851 
C 322.024983 88.436629 303.412131 75.999919 282.928853 67.515467 
C 262.445575 59.031016 240.490219 54.663824 218.319278 54.663824 
C 196.148338 54.663824 174.192982 59.031016 153.709704 67.515467 
C 133.226426 75.999919 114.613574 88.436629 98.936351 104.113851 
C 83.259129 119.791074 70.822419 138.403926 62.337967 158.887204 
C 53.853516 179.370482 49.486324 201.325838 49.486324 223.496778 
C 49.486324 245.667719 53.853516 267.623075 62.337967 288.106353 
C 70.822419 308.589631 83.259129 327.202483 98.936351 342.879705 
C 114.613574 358.556928 133.226426 370.993638 153.709704 379.47809 
C 174.192982 387.962541 196.148338 392.329733 218.319278 392.329733 
C 240.490219 392.329733 262.445575 387.962541 282.928853 379.47809 
C 303.412131 370.993638 322.024983 358.556928 337.702205 342.879705 
C 353.379428 327.202483 365.816138 308.589631 374.30059 288.106353 
C 382.785041 267.623075 387.152233 245.667719 387.152233 223.496778 
M 218.319278 223.496778 
C 218.319278 223.496778 218.319278 223.496778 218.319278 223.496778 
C 218.319278 223.496778 218.319278 223.496778 218.319278 223.496778 
C 218.319278 223.496778 218.319278 223.496778 218.319278 223.496778 
C 218.319278 223.496778 218.319278 223.496778 218.319278 223.496778 
C 218.319278 223.496778 218.319278 223.496778 218.319278 223.496778 
C 218.319278 223.496778 218.319278 223.496778 218.319278 223.496778 
C 218.319278 223.496778 218.319278 223.496778 218.319278 223.496778 
C 218.319278 223.496778 218.319278 223.496778 218.319278 223.496778 
C 218.319278 223.496778 218.319278 223.496778 218.319278 223.496778 
C 218.319278 223.496778 218.319278 223.496778 218.319278 223.496778 
C 218.319278 223.496778 218.319278 223.496778 218.319278 223.496778 
C 218.319278 223.496778 218.319278 223.496778 218.319278 223.496778 
C 218.319278 223.496778 218.319278 223.496778 218.319278 223.496778 
C 218.319278 223.496778 218.319278 223.496778 218.319278 223.496778 
C 218.319278 223.496778 218.319278 223.496778 218.319278 223.496778 
C 218.319278 223.496778 218.319278 223.496778 218.319278 223.496778 
z
"/>
  </clipPath>
  <clipPath id="p3ef4d842be">
   <path d="M 813.752233 223.496778 
C 813.752233 201.325838 809.385041 179.370482 800.90059 158.887204 
C 792.416138 138.403926 779.979428 119.791074 764.302205 104.113851 
C 748.624983 88.436629 730.012131 75.999919 709.528853 67.515467 
C 689.045575 59.031016 667.090219 54.663824 644.919278 54.663824 
C 622.748338 54.663824 600.792982 59.031016 580.309704 67.515467 
C 559.826426 75.999919 541.213574 88.436629 525.536351 104.113851 
C 509.859129 119.791074 497.422419 138.403926 488.937967 158.887204 
C 480.453516 179.370482 476.086324 201.325838 476.086324 223.496778 
C 476.086324 245.667719 480.453516 267.623075 488.937967 288.106353 
C 497.422419 308.589631 509.859129 327.202483 525.536351 342.879705 
C 541.213574 358.556928 559.826426 370.993638 580.309704 379.47809 
C 600.792982 387.962541 622.748338 392.329733 644.919278 392.329733 
C 667.090219 392.329733 689.045575 387.962541 709.528853 379.47809 
C 730.012131 370.993638 748.624983 358.556928 764.302205 342.879705 
C 779.979428 327.202483 792.416138 308.589631 800.90059 288.106353 
C 809.385041 267.623075 813.752233 245.667719 813.752233 223.496778 
M 644.919278 223.496778 
C 644.919278 223.496778 644.919278 223.496778 644.919278 223.496778 
C 644.919278 223.496778 644.919278 223.496778 644.919278 223.496778 
C 644.919278 223.496778 644.919278 223.496778 644.919278 223.496778 
C 644.919278 223.496778 644.919278 223.496778 644.919278 223.496778 
C 644.919278 223.496778 644.919278 223.496778 644.919278 223.496778 
C 644.919278 223.496778 644.919278 223.496778 644.919278 223.496778 
C 644.919278 223.496778 644.919278 223.496778 644.919278 223.496778 
C 644.919278 223.496778 644.919278 223.496778 644.919278 223.496778 
C 644.919278 223.496778 644.919278 223.496778 644.919278 223.496778 
C 644.919278 223.496778 644.919278 223.496778 644.919278 223.496778 
C 644.919278 223.496778 644.919278 223.496778 644.919278 223.496778 
C 644.919278 223.496778 644.919278 223.496778 644.919278 223.496778 
C 644.919278 223.496778 644.919278 223.496778 644.919278 223.496778 
C 644.919278 223.496778 644.919278 223.496778 644.919278 223.496778 
C 644.919278 223.496778 644.919278 223.496778 644.919278 223.496778 
C 644.919278 223.496778 644.919278 223.496778 644.919278 223.496778 
z
"/>
  </clipPath>
 </defs>
</svg>
